<?xml version="1.0" standalone="no"?>
<!DOCTYPE svg PUBLIC "-//W3C//DTD SVG 20010904//EN"
 "http://www.w3.org/TR/2001/REC-SVG-20010904/DTD/svg10.dtd">
<svg version="1.0" xmlns="http://www.w3.org/2000/svg"
 width="700.000000pt" height="700.000000pt" viewBox="0 0 700.000000 700.000000"
 preserveAspectRatio="xMidYMid meet">
<metadata>
Created by potrace 1.14, written by Peter Selinger 2001-2017
</metadata>
<g transform="translate(0.000000,700.000000) scale(0.100000,-0.100000)"
fill="#000000" stroke="none">
<path d="M870 4672 l0 -579 1310 -1584 c721 -871 1315 -1584 1320 -1584 6 0
599 706 1320 1568 l1310 1568 0 595 0 594 -2630 0 -2630 0 0 -578z m1280 218
c0 -148 -2 -270 -4 -270 -5 0 -276 524 -276 534 0 3 63 6 140 6 l140 0 0 -270z
m340 95 c0 -96 -2 -175 -4 -175 -2 0 -67 79 -145 175 l-141 175 145 0 145 0 0
-175z m960 130 c0 -25 -4 -45 -9 -45 -5 0 -51 20 -102 45 l-94 45 103 0 102 0
0 -45z m-2260 -32 l-1 -68 -45 50 c-74 82 -74 85 -9 85 l55 0 0 -67z m290
-175 c0 -133 -4 -238 -8 -232 -5 5 -59 69 -120 142 l-112 133 0 99 0 100 120
0 120 0 0 -242z m330 -195 c0 -377 -2 -435 -14 -423 -8 8 -69 80 -135 160
l-121 145 0 278 0 277 135 0 135 0 0 -437z m1040 323 c0 -97 -2 -115 -17 -120
-10 -4 -26 2 -42 17 -14 13 -71 63 -126 112 -55 48 -104 92 -109 96 -6 5 57 9
142 9 l152 0 0 -114z m320 54 l0 -60 -112 56 c-62 31 -115 58 -117 60 -2 2 48
4 112 4 l117 0 0 -60z m463 20 c-127 -60 -123 -59 -123 -6 l0 46 103 -1 102 0
-82 -39z m297 -15 c-58 -30 -111 -54 -117 -54 -9 -1 -13 16 -13 54 l0 55 118
-1 117 0 -105 -54z m490 51 c0 -13 -264 -236 -270 -229 -5 4 -11 59 -15 121
l-7 112 146 0 c80 0 146 -2 146 -4z m345 -5 c-3 -6 -66 -85 -140 -176 l-135
-167 0 176 0 176 141 0 c85 0 138 -4 134 -9z m271 -138 c-41 -82 -104 -204
-140 -273 l-65 -125 -1 273 0 272 140 0 140 0 -74 -147z m394 -145 l0 -293
-97 -110 c-53 -60 -113 -130 -135 -154 l-38 -44 0 447 0 446 135 0 135 0 0
-292z m300 174 l0 -119 -121 -144 c-67 -79 -123 -146 -125 -148 -2 -2 -4 116
-4 262 l0 267 125 0 125 0 0 -118z m171 81 c-17 -21 -51 -60 -75 -88 l-45 -50
-1 88 0 87 76 0 76 0 -31 -37z m-2867 -130 c-46 -13 -93 -27 -104 -33 -36 -19
-40 -12 -40 80 l0 90 115 -57 115 -57 -86 -23z m714 42 c-2 -1 -39 3 -82 8
l-79 11 79 36 79 36 3 -44 c2 -24 2 -45 0 -47z m338 -82 c-2 -2 -47 9 -100 26
-53 17 -106 31 -119 32 -13 0 28 25 98 58 l120 58 3 -85 c2 -46 1 -87 -2 -89z
m-1325 -39 c0 -3 -33 -21 -74 -39 -41 -17 -90 -42 -109 -53 -20 -12 -38 -22
-42 -22 -3 0 -6 72 -6 161 l0 160 115 -100 c64 -55 116 -103 116 -107z m536
179 c34 -16 63 -31 63 -35 0 -5 -17 -8 -38 -8 -20 0 -52 -4 -70 -9 l-32 -10 0
45 c0 24 3 44 8 44 4 0 35 -12 69 -27z m1140 -299 c-2 -2 -57 21 -122 52 -101
47 -116 57 -104 69 8 8 61 57 119 109 l105 94 3 -160 c1 -89 1 -162 -1 -164z
m-1983 -49 c-53 -34 -223 -147 -241 -161 l-23 -16 0 267 0 267 140 -173 c116
-145 137 -176 124 -184z m2332 -163 c-3 -2 -36 16 -73 40 -37 25 -101 64 -140
88 l-73 42 38 47 c20 26 84 104 142 174 l105 128 3 -257 c1 -141 0 -259 -2
-262z m-2656 -48 c0 -6 -30 -34 -66 -63 -36 -29 -97 -82 -135 -118 l-69 -65 0
388 0 389 135 -260 c74 -143 134 -265 135 -271z m2980 150 l0 -375 -81 71
c-44 39 -106 90 -139 114 l-58 43 136 262 c75 143 138 261 139 261 2 0 3 -169
3 -376z m-1393 300 c207 -30 397 -91 608 -194 146 -72 362 -204 490 -300 112
-84 305 -256 305 -272 0 -6 -42 -61 -94 -123 l-94 -112 -63 -12 c-80 -16 -201
-59 -355 -126 -67 -29 -166 -68 -220 -86 -87 -28 -113 -32 -214 -33 -70 -1
-132 4 -160 12 -62 19 -128 89 -159 170 -14 36 -37 74 -53 87 -25 21 -84 45
-113 45 -6 0 -39 14 -75 32 -53 27 -79 33 -145 36 -108 5 -136 -8 -211 -99
-77 -94 -113 -119 -171 -119 -57 0 -81 24 -148 144 -82 147 -282 340 -400 385
-95 36 -195 32 -283 -10 -59 -29 -153 -118 -200 -190 l-39 -59 -29 31 -29 31
55 50 c465 419 885 643 1335 712 123 19 336 19 462 0z m-2402 -445 c55 -16
114 -60 161 -122 21 -29 55 -70 75 -92 l37 -40 -66 -83 c-72 -91 -96 -96 -68
-16 26 77 22 120 -17 159 -64 64 -160 53 -232 -27 -75 -82 -92 -161 -52 -238
28 -55 73 -80 146 -80 66 0 60 -8 -38 -49 l-74 -31 -73 77 c-40 43 -86 102
-101 132 -75 151 13 346 186 407 45 16 66 17 116 3z m4230 -128 c8 -38 12 -41
130 -89 122 -49 230 -82 296 -91 27 -3 49 -10 49 -16 0 -17 -154 -204 -165
-201 -5 1 -9 16 -7 33 5 44 -17 56 -87 51 -43 -3 -71 -12 -100 -31 -23 -15
-41 -31 -41 -36 0 -4 18 -36 40 -70 31 -48 45 -61 58 -56 53 21 50 0 -10 -72
-29 -34 -70 -85 -91 -113 -38 -50 -60 -59 -50 -20 4 14 -3 30 -18 46 l-24 25
-205 -7 c-113 -3 -207 -8 -209 -10 -5 -4 59 -59 178 -152 96 -74 109 -81 138
-76 18 3 33 3 33 -1 0 -14 -95 -115 -105 -112 -5 2 -12 17 -15 33 -4 21 -30
50 -105 113 -132 111 -236 183 -253 176 -40 -15 -22 17 64 118 53 62 99 113
103 115 4 1 13 -9 20 -24 9 -20 16 -25 34 -20 12 3 51 6 86 6 l64 0 -59 44
c-43 33 -65 43 -81 39 -32 -7 -29 2 18 61 43 54 66 65 61 30 -3 -26 83 -107
235 -221 101 -76 123 -85 123 -55 0 52 -151 314 -222 385 -32 32 -46 53 -41
62 14 23 137 165 144 165 4 0 10 -13 14 -29z m-3140 -100 c113 -32 305 -127
305 -153 0 -14 -111 -29 -279 -39 -186 -11 -191 -10 -191 37 0 11 -6 29 -14
40 -14 18 -15 18 -25 -9 -6 -16 -11 -44 -11 -63 0 -36 -10 -41 -53 -25 -59 23
-74 77 -37 136 19 30 76 76 110 88 34 12 130 6 195 -12z m-626 -265 c39 -47
71 -88 71 -92 0 -3 -9 -4 -19 -1 -32 8 -94 -36 -276 -197 -75 -66 -91 -86 -95
-115 l-5 -35 -77 91 c-43 50 -78 97 -78 103 0 8 10 11 25 8 18 -4 40 8 90 47
133 106 244 208 261 241 10 19 22 34 25 34 4 0 39 -38 78 -84z m959 -10 c52
-60 67 -122 67 -286 0 -159 -14 -224 -62 -280 -22 -26 -31 -30 -76 -30 -127 1
-207 86 -207 220 0 135 90 336 174 390 44 28 70 25 104 -14z m738 -30 c38 -18
90 -37 116 -40 26 -4 57 -15 70 -26 23 -18 23 -19 5 -67 -97 -264 -132 -406
-116 -466 4 -15 5 -27 3 -27 -20 0 -75 33 -92 55 -44 56 -22 209 54 380 13 32
23 62 21 68 -6 20 -89 -79 -125 -151 -46 -94 -55 -179 -24 -222 l21 -28 -42
-39 c-93 -86 -230 -124 -295 -84 -18 12 -41 35 -53 53 -18 30 -20 43 -14 136
3 56 3 102 0 102 -2 0 -11 -15 -18 -32 -8 -18 -23 -41 -34 -51 -32 -28 -53 0
-53 68 0 104 32 146 134 176 105 31 124 43 208 130 108 112 127 117 234 65z
m1354 -102 c0 -3 -13 -22 -29 -42 -15 -20 -60 -81 -99 -134 -93 -127 -137
-175 -191 -210 -40 -25 -54 -28 -131 -28 -120 0 -173 -16 -254 -78 -78 -60
-125 -85 -286 -154 l-115 -49 -22 26 c-30 34 -38 70 -24 101 17 38 98 70 273
108 202 45 256 72 498 245 218 157 380 249 380 215z m-2844 -104 c56 -77 211
-257 225 -262 5 -2 -18 -37 -53 -77 -34 -41 -64 -69 -66 -63 -2 6 4 32 13 58
12 37 13 54 5 80 -22 67 -27 65 -187 -72 -81 -70 -151 -132 -155 -138 -4 -6
-5 -21 -1 -33 10 -42 -13 -24 -96 73 -55 63 -79 100 -73 106 6 6 17 6 29 -1
25 -13 29 -10 206 137 147 123 148 125 82 156 -25 12 -48 15 -85 10 -27 -4
-50 -3 -50 2 0 7 152 95 157 90 0 0 22 -30 49 -66z m2192 -139 c28 -17 -86
-103 -188 -142 -73 -28 -245 -42 -282 -23 -57 30 -77 117 -34 151 22 18 45 19
258 21 128 1 239 -2 246 -7z m875 -57 c65 -22 141 -93 164 -152 24 -62 22
-154 -4 -212 -30 -67 -67 -105 -135 -139 -138 -69 -297 -20 -365 113 -36 70
-38 169 -4 240 65 133 209 196 344 150z m-2719 -215 c47 -55 86 -105 86 -111
0 -6 -10 -8 -25 -4 -19 5 -28 1 -40 -18 -22 -33 -57 -126 -47 -126 22 1 138
32 148 41 6 5 10 19 7 29 -10 36 14 21 64 -40 49 -61 60 -88 33 -81 -51 13
-117 10 -203 -7 -78 -16 -107 -28 -146 -56 -72 -53 -111 -101 -111 -136 0 -17
-3 -30 -7 -29 -10 1 -152 175 -160 195 -5 14 -1 15 26 9 27 -6 39 -1 84 33 93
71 114 98 147 190 17 48 34 110 37 137 5 53 10 75 16 75 3 0 43 -45 91 -101z
m2066 24 c0 -14 -481 -573 -492 -573 -20 0 -110 74 -139 113 -16 22 -29 51
-29 64 0 54 54 116 147 169 26 15 112 65 190 111 79 47 164 93 190 103 48 19
133 27 133 13z m-840 -128 c39 -20 54 -49 40 -76 -22 -39 -121 -64 -148 -37
-20 20 -14 79 10 105 25 27 57 29 98 8z m-299 -10 c20 -3 44 -14 53 -23 15
-17 14 -20 -7 -39 -30 -29 -136 -63 -194 -63 -61 0 -115 15 -145 40 l-23 20
23 20 c36 30 179 62 237 54 11 -2 36 -5 56 -9z m1475 -152 c60 -29 109 -78
130 -129 16 -39 18 -121 4 -159 -20 -53 -239 -325 -262 -325 -5 0 -8 8 -7 18
3 33 -2 39 -88 113 -184 157 -243 199 -269 193 -14 -4 -24 -2 -24 5 0 13 150
194 194 235 88 80 219 100 322 49z m-1450 -68 c84 -25 93 -52 32 -98 -25 -19
-28 -19 -182 2 -151 21 -206 35 -206 52 0 12 43 39 88 55 46 18 193 12 268
-11z m44 -185 c132 -13 192 -33 241 -80 l42 -39 27 19 c46 33 83 35 136 9 l47
-22 -22 -18 c-84 -68 -447 -45 -636 41 -60 27 -125 74 -125 91 0 12 168 11
290 -1z m-531 -75 c97 -53 151 -142 151 -250 0 -109 -59 -205 -150 -244 -115
-49 -221 -34 -308 44 -149 134 -123 372 51 460 46 23 61 26 127 23 60 -4 87
-11 129 -33z m1486 -105 c-4 -6 -23 -7 -45 -4 -54 9 -84 -1 -130 -42 -55 -50
-53 -78 7 -128 21 -18 22 -17 48 22 22 33 24 43 15 66 -13 34 -13 36 2 36 18
0 168 -92 168 -103 0 -5 -16 -6 -34 -3 -41 8 -92 -11 -121 -44 l-20 -22 45
-40 c117 -103 150 -116 189 -74 47 50 58 138 28 223 -7 23 -8 36 -1 43 7 7 29
-19 67 -81 31 -50 57 -94 57 -98 0 -4 -19 -25 -41 -46 -23 -22 -84 -93 -135
-157 -52 -65 -99 -118 -104 -118 -6 0 -10 11 -10 24 0 25 -54 80 -180 182
-117 95 -161 124 -187 124 -31 0 -29 7 18 60 96 107 178 207 193 237 l16 33
81 -40 c44 -22 77 -45 74 -50z m-592 -67 c26 -5 27 -6 13 -22 -15 -17 -98 -61
-138 -75 -26 -8 -22 -18 18 -45 l35 -24 -28 -24 c-67 -54 -150 -54 -211 1
l-36 34 31 6 c38 9 66 37 57 59 -7 18 -97 64 -144 74 -87 17 49 32 235 26 77
-2 153 -7 168 -10z m-482 -303 c45 -58 104 -128 130 -155 l48 -51 -50 -67
c-27 -37 -53 -67 -59 -67 -13 0 -13 1 6 45 13 31 13 46 4 87 -13 53 -52 108
-77 108 -19 0 -83 -47 -83 -60 0 -5 11 -21 24 -37 19 -22 31 -27 60 -25 20 2
36 0 36 -3 0 -8 -121 -149 -132 -153 -13 -6 -9 16 8 50 15 28 14 33 -8 76 -13
25 -28 47 -33 49 -6 2 -52 -33 -103 -77 -77 -68 -92 -85 -92 -110 0 -17 -4
-30 -9 -30 -14 0 -161 182 -155 191 3 5 20 9 37 9 25 0 53 17 123 73 156 125
214 179 220 206 8 39 14 54 18 50 2 -2 41 -51 87 -109z m666 8 c35 -24 61 -47
60 -53 -2 -5 -22 -9 -45 -7 -48 4 -125 -27 -141 -56 -18 -34 -13 -70 10 -83
19 -10 37 -4 123 39 56 28 121 54 146 57 124 16 200 -116 139 -242 -11 -24
-58 -81 -104 -128 -46 -46 -85 -90 -87 -97 -3 -9 -120 62 -177 108 -1 1 0 7 4
13 4 7 20 4 47 -10 31 -16 51 -19 83 -15 72 11 145 80 145 137 0 65 -74 71
-157 13 -76 -52 -105 -64 -156 -64 -79 0 -147 66 -147 143 0 54 32 109 111
193 38 40 69 78 69 83 0 18 12 13 77 -31z m-272 -567 c55 -89 93 -161 90 -169
-9 -24 -189 -312 -195 -312 -5 0 -186 289 -195 312 -6 16 184 330 197 326 4
-2 51 -72 103 -157z"/>
<path d="M5549 4168 c17 -29 35 -59 40 -66 6 -11 18 -7 54 16 l47 29 -58 26
c-31 14 -70 31 -85 36 l-29 11 31 -52z"/>
<path d="M4815 3468 c-27 -15 -35 -28 -35 -61 0 -40 22 -76 78 -129 96 -90
200 -121 256 -77 55 43 27 128 -69 202 -92 71 -177 95 -230 65z"/>
<path d="M4441 2992 c-62 -31 -63 -48 -6 -99 89 -79 247 -194 263 -191 27 5
62 67 62 110 0 49 -19 86 -65 126 -81 71 -180 92 -254 54z"/>
<path d="M2685 2689 c-98 -52 -183 -174 -172 -247 12 -75 77 -92 162 -43 85
48 165 154 165 216 0 33 -24 81 -45 89 -31 11 -70 6 -110 -15z"/>
</g>
</svg>
